<svg xmlns="http://www.w3.org/2000/svg" viewBox="0 0 535.68 107.61"><defs><style>.cls-1,.cls-3{fill:#005f36;}.cls-1,.cls-2{fill-rule:evenodd;}.cls-2,.cls-4{fill:#81c45b;}</style></defs><g id="Camada_2" data-name="Camada 2"><g id="univille_logo-desktop" data-name="univille logo-desktop"><g id="Grupo_2" data-name="Grupo 2"><path id="Caminho_6" data-name="Caminho 6" class="cls-1" d="M112.6,53.75h-25c-10.95,0-25,9.41-25,25.07v28.79S112.6,107.88,112.6,53.75Z"/><path id="Caminho_7" data-name="Caminho 7" class="cls-1" d="M6.46,53.75h25c10.95,0,25,9.41,25,25.07v28.79S6.46,107.88,6.46,53.75Z"/><path id="Caminho_8" data-name="Caminho 8" class="cls-1" d="M6.46,53.75h25c10.95,0,25,9.41,25,25.07v28.79S6.46,107.88,6.46,53.75Z"/><path id="Caminho_9" data-name="Caminho 9" class="cls-2" d="M31.46,0H0V47.27H31.46a32.46,32.46,0,0,1,25,12.61V37.47C56.46,11.25,40.7,0,31.46,0Z"/><path id="Caminho_10" data-name="Caminho 10" class="cls-2" d="M87.6,0h31.46V47.27H87.6a32.44,32.44,0,0,0-25,12.61V37.47C62.61,11.25,78.37,0,87.6,0Z"/></g><g id="Grupo_4" data-name="Grupo 4"><g id="Grupo_3" data-name="Grupo 3"><path id="Caminho_11" data-name="Caminho 11" class="cls-3" d="M215.47,105.81c-20.26,0-32.22-13.41-32.22-32.46V31.43h18.57V73.91c0,4.1,1.41,13.83,13.65,13.83,8.17,0,14.08-5.79,14.08-13.83V31.43h18.58V73.35C248.13,91.84,235.18,105.81,215.47,105.81Z"/><path id="Caminho_12" data-name="Caminho 12" class="cls-3" d="M276.66,50.67c15.14,0,24.07,10,24.07,24.25v31.42H286.86V74.61c0-3.06-1.05-10.34-10.2-10.34-6.1,0-10.52,4.22-10.52,10.34v31.73H252.27V74.92C252.27,61.11,261.94,50.67,276.66,50.67Z"/><path id="Caminho_13" data-name="Caminho 13" class="cls-3" d="M313.24,46.13v-7.8a7,7,0,0,1,14,0v7.8Zm14,60.21H313.34V52h13.88Z"/><path id="Caminho_14" data-name="Caminho 14" class="cls-3" d="M369.37,106.34H354.44L333.94,52h14.51l13.46,40.49L375.48,52h14.3Z"/><path id="Caminho_15" data-name="Caminho 15" class="cls-3" d="M396.49,46.13v-7.8a7,7,0,0,1,14,0v7.8Zm14,60.21H396.6V52h13.88Z"/><path id="Caminho_16" data-name="Caminho 16" class="cls-3" d="M422.56,27.89h14V83.57c0,7.7,3.46,10.44,10.3,10v12.66c-15.88,1.69-24.29-7.8-24.29-22.67Z"/><path id="Caminho_17" data-name="Caminho 17" class="cls-3" d="M452.83,27.89h14V83.57c0,7.7,3.47,10.44,10.3,10v12.66c-15.87,1.69-24.29-7.8-24.29-22.67Z"/><path id="Caminho_18" data-name="Caminho 18" class="cls-3" d="M535.26,89.05c-3.16,11.07-12.72,18.56-26.18,18.56-15.35,0-27.76-12.65-27.76-28.37s12.41-28.57,27.76-28.57c13,0,24,8.22,26.6,22.78L497.41,89.58A14.12,14.12,0,0,0,509,95.38c4.52,0,9.15-2,11.47-6.33ZM519.7,67.75A13.61,13.61,0,0,0,509,62.9c-8,0-14.4,6.33-14.72,15.61Z"/><path id="Caminho_18-2" data-name="Caminho 18" class="cls-4" d="M176.52,87.25c-3.15,11.07-12.72,18.56-26.18,18.56-15.34,0-27.75-12.65-27.75-28.36S135,48.87,150.34,48.87c13,0,24,8.22,26.6,22.78L138.68,87.78a14.07,14.07,0,0,0,11.56,5.8c4.52,0,9.15-2,11.47-6.33ZM161,66a13.63,13.63,0,0,0-10.73-4.85c-8,0-14.4,6.33-14.71,15.61Z"/></g></g></g></g></svg>